{
    "asset" : {
        "generator" : "Khronos glTF Blender I/O v1.1.46",
        "version" : "2.0"
    },
    "scene" : 0,
    "scenes" : [
        {
            "name" : "Scene",
            "nodes" : [
                0,
                1,
                10
            ]
        }
    ],
    "nodes" : [
        {
            "name" : "Light",
            "rotation" : [
                0.16907575726509094,
                0.7558803558349609,
                -0.27217137813568115,
                0.570947527885437
            ],
            "translation" : [
                4.076245307922363,
                5.903861999511719,
                -1.0054539442062378
            ]
        },
        {
            "name" : "Camera",
            "rotation" : [
                0.483536034822464,
                0.33687159419059753,
                -0.20870360732078552,
                0.7804827094078064
            ],
            "translation" : [
                7.358891487121582,
                4.958309173583984,
                6.925790786743164
            ]
        },
        {
            "mesh" : 0,
            "name" : "Object_5"
        },
        {
            "mesh" : 1,
            "name" : "Object_6"
        },
        {
            "mesh" : 2,
            "name" : "Object_7"
        },
        {
            "mesh" : 3,
            "name" : "Object_8"
        },
        {
            "children" : [
                2,
                3,
                4,
                5
            ],
            "name" : "BGA64C50P8X8_497X500X120N"
        },
        {
            "children" : [
                6
            ],
            "name" : "BGA64C50P8X8_497X500X120N:U$1",
            "translation" : [
                0.00634999992325902,
                0.0015699999639764428,
                -0.00634999992325902
            ]
        },
        {
            "children" : [
                7
            ],
            "name" : "PCB Component"
        },
        {
            "children" : [
                8
            ],
            "name" : "PCB Component:1"
        },
        {
            "children" : [
                9
            ],
            "name" : "STM32F030F4",
            "rotation" : [
                -0.003273308277130127,
                0,
                0,
                0.9999946355819702
            ]
        }
    ],
    "materials" : [
        {
            "doubleSided" : true,
            "emissiveFactor" : [
                0,
                0,
                0
            ],
            "name" : "Material_0",
            "pbrMetallicRoughness" : {
                "baseColorFactor" : [
                    0.7490196228027344,
                    0.7490196228027344,
                    0.7490196228027344,
                    1
                ],
                "metallicFactor" : 0,
                "roughnessFactor" : 1
            }
        },
        {
            "doubleSided" : true,
            "emissiveFactor" : [
                0,
                0,
                0
            ],
            "name" : "Material_1",
            "pbrMetallicRoughness" : {
                "baseColorFactor" : [
                    0.20000000298023224,
                    0.20000000298023224,
                    0.20000000298023224,
                    1
                ],
                "metallicFactor" : 0,
                "roughnessFactor" : 1
            }
        },
        {
            "doubleSided" : true,
            "emissiveFactor" : [
                0,
                0,
                0
            ],
            "name" : "Material_2",
            "pbrMetallicRoughness" : {
                "baseColorFactor" : [
                    0,
                    0.3019607961177826,
                    0.10196078568696976,
                    1
                ],
                "metallicFactor" : 0,
                "roughnessFactor" : 1
            }
        },
        {
            "doubleSided" : true,
            "emissiveFactor" : [
                0,
                0,
                0
            ],
            "name" : "Material_3",
            "pbrMetallicRoughness" : {
                "baseColorFactor" : [
                    0.03921568766236305,
                    0.03921568766236305,
                    0.03921568766236305,
                    1
                ],
                "metallicFactor" : 0,
                "roughnessFactor" : 1
            }
        }
    ],
    "meshes" : [
        {
            "name" : "Mesh_0",
            "primitives" : [
                {
                    "attributes" : {
                        "POSITION" : 0,
                        "NORMAL" : 1
                    },
                    "indices" : 2,
                    "material" : 0
                }
            ]
        },
        {
            "name" : "Mesh_1",
            "primitives" : [
                {
                    "attributes" : {
                        "POSITION" : 3,
                        "NORMAL" : 4
                    },
                    "indices" : 5,
                    "material" : 1
                }
            ]
        },
        {
            "name" : "Mesh_2",
            "primitives" : [
                {
                    "attributes" : {
                        "POSITION" : 6,
                        "NORMAL" : 7
                    },
                    "indices" : 8,
                    "material" : 2
                }
            ]
        },
        {
            "name" : "Mesh_3",
            "primitives" : [
                {
                    "attributes" : {
                        "POSITION" : 9,
                        "NORMAL" : 10
                    },
                    "indices" : 11,
                    "material" : 3
                }
            ]
        }
    ],
    "accessors" : [
        {
            "bufferView" : 0,
            "componentType" : 5126,
            "count" : 17696,
            "max" : [
                0.0019246796146035194,
                0.0002500000118743628,
                0.0019246796146035194
            ],
            "min" : [
                -0.0019246796146035194,
                -3.469446874405432e-20,
                -0.0019246796146035194
            ],
            "type" : "VEC3"
        },
        {
            "bufferView" : 1,
            "componentType" : 5126,
            "count" : 17696,
            "type" : "VEC3"
        },
        {
            "bufferView" : 2,
            "componentType" : 5123,
            "count" : 94464,
            "type" : "SCALAR"
        },
        {
            "bufferView" : 3,
            "componentType" : 5126,
            "count" : 132,
            "max" : [
                -0.002102916594594717,
                0.0012000000569969416,
                -0.002102916594594717
            ],
            "min" : [
                -0.0023604165762662888,
                0.0011500000255182385,
                -0.0023604165762662888
            ],
            "type" : "VEC3"
        },
        {
            "bufferView" : 4,
            "componentType" : 5126,
            "count" : 132,
            "type" : "VEC3"
        },
        {
            "bufferView" : 5,
            "componentType" : 5123,
            "count" : 318,
            "type" : "SCALAR"
        },
        {
            "bufferView" : 6,
            "componentType" : 5126,
            "count" : 4791,
            "max" : [
                0.002575000049546361,
                0.0008833333267830312,
                0.002575000049546361
            ],
            "min" : [
                -0.002575000049546361,
                0.0002500000118743628,
                -0.002575000049546361
            ],
            "type" : "VEC3"
        },
        {
            "bufferView" : 7,
            "componentType" : 5126,
            "count" : 4791,
            "type" : "VEC3"
        },
        {
            "bufferView" : 8,
            "componentType" : 5123,
            "count" : 7350,
            "type" : "SCALAR"
        },
        {
            "bufferView" : 9,
            "componentType" : 5126,
            "count" : 102,
            "max" : [
                0.002524999901652336,
                0.0012000000569969416,
                0.002524999901652336
            ],
            "min" : [
                -0.002524999901652336,
                0.0008833333267830312,
                -0.002524999901652336
            ],
            "type" : "VEC3"
        },
        {
            "bufferView" : 10,
            "componentType" : 5126,
            "count" : 102,
            "type" : "VEC3"
        },
        {
            "bufferView" : 11,
            "componentType" : 5123,
            "count" : 144,
            "type" : "SCALAR"
        }
    ],
    "bufferViews" : [
        {
            "buffer" : 0,
            "byteLength" : 212352,
            "byteOffset" : 0
        },
        {
            "buffer" : 0,
            "byteLength" : 212352,
            "byteOffset" : 212352
        },
        {
            "buffer" : 0,
            "byteLength" : 188928,
            "byteOffset" : 424704
        },
        {
            "buffer" : 0,
            "byteLength" : 1584,
            "byteOffset" : 613632
        },
        {
            "buffer" : 0,
            "byteLength" : 1584,
            "byteOffset" : 615216
        },
        {
            "buffer" : 0,
            "byteLength" : 636,
            "byteOffset" : 616800
        },
        {
            "buffer" : 0,
            "byteLength" : 57492,
            "byteOffset" : 617436
        },
        {
            "buffer" : 0,
            "byteLength" : 57492,
            "byteOffset" : 674928
        },
        {
            "buffer" : 0,
            "byteLength" : 14700,
            "byteOffset" : 732420
        },
        {
            "buffer" : 0,
            "byteLength" : 1224,
            "byteOffset" : 747120
        },
        {
            "buffer" : 0,
            "byteLength" : 1224,
            "byteOffset" : 748344
        },
        {
            "buffer" : 0,
            "byteLength" : 288,
            "byteOffset" : 749568
        }
    ],
    "buffers" : [
        {
            "byteLength" : 749856,
            "uri" : "data:application/octet-stream;base64,"
        }
    ]
}
